<svg xmlns="http://www.w3.org/2000/svg" viewBox="0 0 500 500"><g id="freepik--background-complete--inject-6"><rect y="382.4" width="500" height="0.25" style="fill:#ebebeb"></rect><rect x="416.78" y="398.49" width="33.12" height="0.25" style="fill:#ebebeb"></rect><rect x="322.53" y="401.21" width="8.69" height="0.25" style="fill:#ebebeb"></rect><rect x="396.59" y="389.21" width="19.19" height="0.25" style="fill:#ebebeb"></rect><rect x="52.46" y="390.89" width="43.19" height="0.25" style="fill:#ebebeb"></rect><rect x="104.56" y="390.89" width="6.33" height="0.25" style="fill:#ebebeb"></rect><rect x="131.47" y="395.11" width="93.68" height="0.25" style="fill:#ebebeb"></rect><path d="M237,337.8H43.91a5.71,5.71,0,0,1-5.7-5.71V60.66A5.71,5.71,0,0,1,43.91,55H237a5.71,5.71,0,0,1,5.71,5.71V332.09A5.71,5.71,0,0,1,237,337.8ZM43.91,55.2a5.46,5.46,0,0,0-5.45,5.46V332.09a5.46,5.46,0,0,0,5.45,5.46H237a5.47,5.47,0,0,0,5.46-5.46V60.66A5.47,5.47,0,0,0,237,55.2Z" style="fill:#ebebeb"></path><path d="M453.31,337.8H260.21a5.72,5.72,0,0,1-5.71-5.71V60.66A5.72,5.72,0,0,1,260.21,55h193.1A5.71,5.71,0,0,1,459,60.66V332.09A5.71,5.71,0,0,1,453.31,337.8ZM260.21,55.2a5.47,5.47,0,0,0-5.46,5.46V332.09a5.47,5.47,0,0,0,5.46,5.46h193.1a5.47,5.47,0,0,0,5.46-5.46V60.66a5.47,5.47,0,0,0-5.46-5.46Z" style="fill:#ebebeb"></path><rect x="396.66" y="228.02" width="25.08" height="10.83" style="fill:#f0f0f0"></rect><rect x="366.31" y="228.02" width="25.08" height="10.83" style="fill:#f0f0f0"></rect><rect x="335.95" y="228.02" width="25.08" height="10.83" style="fill:#f0f0f0"></rect><rect x="411.84" y="212.94" width="25.08" height="10.83" style="fill:#f0f0f0"></rect><rect x="381.48" y="212.94" width="25.08" height="10.83" style="fill:#f0f0f0"></rect><rect x="351.13" y="212.94" width="25.08" height="10.83" style="fill:#f0f0f0"></rect><rect x="320.78" y="212.94" width="25.08" height="10.83" style="fill:#f0f0f0"></rect><rect x="427.01" y="197.86" width="25.08" height="10.83" style="fill:#f0f0f0"></rect><rect x="396.66" y="197.86" width="25.08" height="10.83" style="fill:#f0f0f0"></rect><rect x="366.31" y="197.86" width="25.08" height="10.83" style="fill:#f0f0f0"></rect><rect x="335.95" y="197.86" width="25.08" height="10.83" style="fill:#f0f0f0"></rect><rect x="305.6" y="197.86" width="25.08" height="10.83" style="fill:#f0f0f0"></rect><rect x="411.84" y="182.78" width="25.08" height="10.83" style="fill:#f0f0f0"></rect><rect x="381.48" y="182.78" width="25.08" height="10.83" style="fill:#f0f0f0"></rect><rect x="351.13" y="182.78" width="25.08" height="10.83" style="fill:#f0f0f0"></rect><rect x="320.78" y="182.78" width="25.08" height="10.83" style="fill:#f0f0f0"></rect><rect x="173.26" y="371.62" width="25.08" height="10.83" style="fill:#f0f0f0"></rect><rect x="142.91" y="371.62" width="25.08" height="10.83" style="fill:#f0f0f0"></rect><rect x="188.44" y="356.54" width="25.08" height="10.83" style="fill:#f0f0f0"></rect><rect x="158.08" y="356.54" width="25.08" height="10.83" style="fill:#f0f0f0"></rect><rect x="72.12" y="364.38" width="25.08" height="10.83" style="fill:#f0f0f0"></rect><rect x="41.77" y="364.38" width="25.08" height="10.83" style="fill:#f0f0f0"></rect><rect x="173.26" y="341.46" width="25.08" height="10.83" style="fill:#f0f0f0"></rect><rect x="142.91" y="341.46" width="25.08" height="10.83" style="fill:#f0f0f0"></rect><rect x="56.94" y="349.3" width="25.08" height="10.83" style="fill:#f0f0f0"></rect><rect x="433.15" y="360.38" width="25.08" height="10.83" style="fill:#f0f0f0"></rect><rect x="402.8" y="360.38" width="25.08" height="10.83" style="fill:#f0f0f0"></rect><rect x="417.97" y="345.3" width="25.08" height="10.83" style="fill:#f0f0f0"></rect><rect x="424.38" y="131.76" width="25.08" height="10.83" style="fill:#f0f0f0"></rect><rect x="394.03" y="131.76" width="25.08" height="10.83" style="fill:#f0f0f0"></rect><rect x="409.2" y="116.68" width="25.08" height="10.83" style="fill:#f0f0f0"></rect><rect x="315.82" y="348.14" width="25.08" height="10.83" style="fill:#f0f0f0"></rect><rect x="285.47" y="348.14" width="25.08" height="10.83" style="fill:#f0f0f0"></rect><rect x="331" y="333.06" width="25.08" height="10.83" style="fill:#f0f0f0"></rect><rect x="300.65" y="333.06" width="25.08" height="10.83" style="fill:#f0f0f0"></rect><rect x="270.29" y="333.06" width="25.08" height="10.83" style="fill:#f0f0f0"></rect><rect x="346.18" y="317.98" width="25.08" height="10.83" style="fill:#f0f0f0"></rect><rect x="315.82" y="317.98" width="25.08" height="10.83" style="fill:#f0f0f0"></rect><rect x="285.47" y="317.98" width="25.08" height="10.83" style="fill:#f0f0f0"></rect><rect x="331" y="302.9" width="25.08" height="10.83" style="fill:#f0f0f0"></rect><rect x="300.65" y="302.9" width="25.08" height="10.83" style="fill:#f0f0f0"></rect><rect x="153.16" y="245.82" width="25.08" height="10.83" style="fill:#f0f0f0"></rect><rect x="122.8" y="245.82" width="25.08" height="10.83" style="fill:#f0f0f0"></rect><rect x="254.71" y="250.95" width="25.08" height="10.83" style="fill:#f0f0f0"></rect><rect x="168.33" y="230.74" width="25.08" height="10.83" style="fill:#f0f0f0"></rect><rect x="137.98" y="230.74" width="25.08" height="10.83" style="fill:#f0f0f0"></rect><rect x="269.89" y="235.87" width="25.08" height="10.83" style="fill:#f0f0f0"></rect><rect x="239.53" y="235.87" width="25.08" height="10.83" style="fill:#f0f0f0"></rect><rect x="153.16" y="215.66" width="25.08" height="10.83" style="fill:#f0f0f0"></rect><rect x="122.8" y="215.66" width="25.08" height="10.83" style="fill:#f0f0f0"></rect><rect x="168.33" y="200.58" width="25.08" height="10.83" style="fill:#f0f0f0"></rect><rect x="137.98" y="200.58" width="25.08" height="10.83" style="fill:#f0f0f0"></rect><rect x="140.27" y="162.16" width="25.08" height="10.83" style="fill:#f0f0f0"></rect><rect x="109.92" y="162.16" width="25.08" height="10.83" style="fill:#f0f0f0"></rect><rect x="79.56" y="162.16" width="25.08" height="10.83" style="fill:#f0f0f0"></rect><rect x="49.21" y="162.16" width="25.08" height="10.83" style="fill:#f0f0f0"></rect><rect x="155.45" y="147.08" width="25.08" height="10.83" style="fill:#f0f0f0"></rect><rect x="125.09" y="147.08" width="25.08" height="10.83" style="fill:#f0f0f0"></rect><rect x="64.39" y="147.08" width="25.08" height="10.83" style="fill:#f0f0f0"></rect><rect x="170.63" y="132" width="25.08" height="10.83" style="fill:#f0f0f0"></rect><rect x="140.27" y="132" width="25.08" height="10.83" style="fill:#f0f0f0"></rect><rect x="109.92" y="132" width="25.08" height="10.83" style="fill:#f0f0f0"></rect><rect x="155.45" y="116.92" width="25.08" height="10.83" style="fill:#f0f0f0"></rect><rect x="125.09" y="116.92" width="25.08" height="10.83" style="fill:#f0f0f0"></rect><rect x="94.74" y="116.92" width="25.08" height="10.83" style="fill:#f0f0f0"></rect><rect x="311.87" y="162.86" width="25.08" height="10.83" style="fill:#f0f0f0"></rect><rect x="281.52" y="162.86" width="25.08" height="10.83" style="fill:#f0f0f0"></rect><rect x="251.16" y="162.86" width="25.08" height="10.83" style="fill:#f0f0f0"></rect><rect x="327.05" y="147.78" width="25.08" height="10.83" style="fill:#f0f0f0"></rect><rect x="296.69" y="147.78" width="25.08" height="10.83" style="fill:#f0f0f0"></rect><rect x="266.34" y="147.78" width="25.08" height="10.83" style="fill:#f0f0f0"></rect><rect x="235.99" y="147.78" width="25.08" height="10.83" style="fill:#f0f0f0"></rect><rect x="342.23" y="132.7" width="25.08" height="10.83" style="fill:#f0f0f0"></rect><rect x="311.87" y="132.7" width="25.08" height="10.83" style="fill:#f0f0f0"></rect><rect x="281.52" y="132.7" width="25.08" height="10.83" style="fill:#f0f0f0"></rect><rect x="251.16" y="132.7" width="25.08" height="10.83" style="fill:#f0f0f0"></rect><rect x="327.05" y="117.62" width="25.08" height="10.83" style="fill:#f0f0f0"></rect><rect x="296.69" y="117.62" width="25.08" height="10.83" style="fill:#f0f0f0"></rect><rect x="266.34" y="117.62" width="25.08" height="10.83" style="fill:#f0f0f0"></rect><rect x="235.99" y="117.62" width="25.08" height="10.83" style="fill:#f0f0f0"></rect><polygon points="433.94 82.28 401.06 82.28 401.06 94.91 367.29 94.91 367.29 82.28 334.41 82.28 334.41 94.91 300.63 94.91 300.63 82.28 267.75 82.28 267.75 94.91 233.98 94.91 233.98 82.28 201.1 82.28 201.1 94.91 167.33 94.91 167.33 82.28 134.45 82.28 134.45 94.91 100.67 94.91 100.67 82.28 67.8 82.28 67.8 94.91 43.81 94.91 43.81 99.87 457.93 99.87 457.93 94.91 433.94 94.91 433.94 82.28" style="fill:#f0f0f0"></polygon></g><g id="freepik--Shadow--inject-6"><ellipse id="freepik--path--inject-6" cx="250" cy="416.24" rx="193.89" ry="11.32" style="fill:#f5f5f5"></ellipse></g><g id="freepik--wall-2--inject-6"><polygon points="437.14 142.03 395.16 142.03 383.79 167.32 434.58 171.57 437.14 163.35 437.14 142.03" style="fill:#0684BE"></polygon><polygon points="437.14 144.73 382.61 144.73 382.61 164.69 354.68 164.69 354.68 176.72 361.55 176.72 361.55 197.91 345.92 197.91 345.92 223.43 333.75 223.43 333.75 237.11 358.97 237.11 358.97 258.77 346.89 258.77 346.89 269.75 329.37 269.75 329.37 288.29 352.39 288.29 352.39 302.35 320.72 302.35 320.72 320.48 330.34 320.48 330.34 340.64 298.79 340.64 298.79 350.74 276.67 350.74 276.67 362.78 269.59 362.78 269.59 388.55 248.36 388.55 248.36 399.67 227.35 399.67 227.35 416.24 437.14 416.24 437.14 144.73" style="fill:#0684BE"></polygon><polygon points="437.14 144.73 395.52 144.73 395.52 164.69 367.6 164.69 367.6 176.72 374.47 176.72 374.47 197.91 358.84 197.91 358.84 223.43 346.67 223.43 346.67 237.11 371.88 237.11 371.88 258.77 359.81 258.77 359.81 269.75 342.29 269.75 342.29 288.29 365.31 288.29 365.31 302.35 333.63 302.35 333.63 320.48 343.26 320.48 343.26 340.64 311.7 340.64 311.7 350.74 289.59 350.74 289.59 362.78 282.51 362.78 282.51 388.55 261.28 388.55 261.28 399.67 240.27 399.67 240.27 416.24 437.14 416.24 437.14 144.73" style="fill:#fff;opacity:0.2;isolation:isolate"></polygon><polygon points="437.14 142.03 413.05 142.03 416.7 155.69 424.73 159.34 413.05 157.52 407.94 161.9 409.4 169.13 407.94 174.41 400.64 179.17 392.24 182.88 402.1 189.73 418.16 188.32 424.73 184.31 418.89 191.54 429.11 196.37 410.68 192.13 395.89 194.25 390.42 206.16 383.12 211.11 383.12 229.43 391.88 231.53 392.24 238.58 399.54 242.52 406.11 244.51 419.62 235.63 429.11 237.85 418.52 238.58 408.67 246.67 404.29 250.97 406.11 253.51 413.05 257.57 419.25 253.79 425.82 258.77 418.52 257.57 411.59 261.77 406.11 258.77 394.8 261.77 384.94 268.18 384.58 274.63 389.69 283 399.91 286.74 412.32 285.18 419.25 293.5 410.86 288.29 398.08 288.29 387.86 285.18 375.82 290.39 371.8 300.8 373.99 311.79 365.96 319.52 353.55 323.04 356.84 337.53 367.42 342.26 379.83 343.01 383.85 343.01 397.72 335.92 407.21 337.23 396.62 339.09 386.16 344.79 376.91 346.47 372.17 350.74 375.45 359.74 383.48 365.21 371.44 361.2 368.15 351.71 361.95 344.79 353.55 342.26 330.56 353.27 325.85 366.67 311.21 374.34 316.32 382 321.84 385.25 341.87 387.11 321.84 388.57 315.96 386.02 298.46 397.53 300.99 402.37 295.52 405.79 292.23 407.26 289 416.24 437.14 416.24 437.14 142.03" style="fill:#0684BE"></polygon><polygon points="437.14 142.03 413.05 142.03 416.7 155.69 424.73 159.34 413.05 157.52 407.94 161.9 409.4 169.13 407.94 174.41 400.64 179.17 392.24 182.88 402.1 189.73 418.16 188.32 424.73 184.31 418.89 191.54 429.11 196.37 410.68 192.13 395.89 194.25 390.42 206.16 383.12 211.11 383.12 229.43 391.88 231.53 392.24 238.58 399.54 242.52 406.11 244.51 419.62 235.63 429.11 237.85 418.52 238.58 408.67 246.67 404.29 250.97 406.11 253.51 413.05 257.57 419.25 253.79 425.82 258.77 418.52 257.57 411.59 261.77 406.11 258.77 394.8 261.77 384.94 268.18 384.58 274.63 389.69 283 399.91 286.74 412.32 285.18 419.25 293.5 410.86 288.29 398.08 288.29 387.86 285.18 375.82 290.39 371.8 300.8 373.99 311.79 365.96 319.52 353.55 323.04 356.84 337.53 367.42 342.26 379.83 343.01 383.85 343.01 397.72 335.92 407.21 337.23 396.62 339.09 386.16 344.79 376.91 346.47 372.17 350.74 375.45 359.74 383.48 365.21 371.44 361.2 368.15 351.71 361.95 344.79 353.55 342.26 330.56 353.27 325.85 366.67 311.21 374.34 316.32 382 321.84 385.25 341.87 387.11 321.84 388.57 315.96 386.02 298.46 397.53 300.99 402.37 295.52 405.79 292.23 407.26 289 416.24 437.14 416.24 437.14 142.03" style="fill:#fff;opacity:0.6000000000000001;isolation:isolate"></polygon><path d="M425.18,416.24s-8.15-16-4.19-18.63,6.46,12.1,6.46,12.1.15-28.29,7.33-27.06,1,25.31,1,25.31,13.3-48.61,24.37-46.63-16.35,50-16.35,50,17.89-22.86,21.5-17.85-13,19.07-13,19.07,18.33-.79,13.47,4.65Z" style="fill:#0684BE"></path></g><g id="freepik--Character--inject-6"><g id="freepik--group--inject-6"><path d="M278,187.69c10.26,2.88,28.3,11.09,34.16,15.05s5.41,15.6,5.41,15.6l-7,.49s-3.57-7.31-6.51-9.23-28.88-6.9-28.88-6.9Z" style="fill:#0684BE"></path><path d="M317.58,218.34l-7,.49s-3.57-7.31-6.51-9.23c-2-1.34-15.25-4.16-23.07-5.75-3.42-.69-5.81-1.15-5.81-1.15l.74-4,2.06-11c10.26,2.88,28.29,11.09,34.16,15.05S317.58,218.34,317.58,218.34Z" style="fill:#fff;opacity:0.6000000000000001;isolation:isolate"></path><path d="M281,203.85c-3.42-.69-5.81-1.15-5.81-1.15l.74-4A13.94,13.94,0,0,1,281,203.85Z" style="opacity:0.2;isolation:isolate"></path><path d="M221.89,233.08s12.55-36.11,10.25-55.15a120.13,120.13,0,0,1,27.08,2.81c13,3.14,18.79,6.95,18.79,6.95s-1.17,23.7-18,56.58Z" style="fill:#0684BE"></path><path d="M278,187.69s-1.17,23.7-18,56.58l-38.12-11.19a256.85,256.85,0,0,0,8.33-30.91,127.3,127.3,0,0,0,1.92-13.07,55.45,55.45,0,0,0,0-11.17,120.13,120.13,0,0,1,27.08,2.81C272.26,183.88,278,187.69,278,187.69Z" style="fill:#fff;opacity:0.7000000000000001;isolation:isolate"></path><path d="M230.22,202.17a127.3,127.3,0,0,0,1.92-13.07l1.21-.71S234.9,194.9,230.22,202.17Z" style="opacity:0.2;isolation:isolate"></path><polygon points="131.28 298.23 129.45 306.18 146.63 309.8 148.46 301.85 131.28 298.23" style="fill:#ebb376"></polygon><path d="M130.57,306.74l2.49-9a.68.68,0,0,0-.32-.79l-6.1-3.1a1.18,1.18,0,0,0-1.55.62.94.94,0,0,0-.07.22c-.81,3.12-1.1,4.76-2.18,8.67-.66,2.39-2.64,12.3-1.9,15.52s3.82,2.66,3.91,1.23c.44-7.2,2.75-10.66,4.92-12.22A2.18,2.18,0,0,0,130.57,306.74Z" style="fill:#263238"></path><polygon points="148.46 301.85 146.63 309.8 137.77 307.93 139.6 299.98 148.46 301.85" style="opacity:0.2;isolation:isolate"></polygon><path d="M129.41,307.06a.2.2,0,0,1,.19-.11.14.14,0,0,1,.14.12c.1.33.84,3.22.18,4a.61.61,0,0,1-.59.17,1,1,0,0,1-.81-.59,2.71,2.71,0,0,1,0-1.62A10.84,10.84,0,0,1,129.41,307.06Zm.09.59a4.16,4.16,0,0,0-.64,2.83.63.63,0,0,0,.56.4.21.21,0,0,0,.23-.07.7.7,0,0,0,.11-.23A8.26,8.26,0,0,0,129.5,307.65Z" style="fill:#263238"></path><path d="M129.44,307a.16.16,0,0,1,.18-.06c.12,0,2.19.71,2.63,1.79a1,1,0,0,1,0,.85.62.62,0,0,1-.61.49c-.87,0-2-2-2.24-2.9l0-.09A.16.16,0,0,1,129.44,307Zm2.48,2.38a.75.75,0,0,0,0-.47c-.28-.69-1.45-1.23-2-1.47.35.94,1.29,2.24,1.8,2.25.05,0,.16,0,.25-.23l0-.08Z" style="fill:#263238"></path><polygon points="263.75 411.33 271.5 410.03 269.13 391.96 261.36 393.27 263.75 411.33" style="fill:#ebb376"></polygon><path d="M272.43,409,263,410.53a.7.7,0,0,0-.57.65l-.37,7.16a1.16,1.16,0,0,0,1.11,1.21l.26,0c3-.56,5.22-1.12,9.05-1.77,2.36-.39,9.51-1.34,12.76-1.89S288.39,412,287,412c-6.2-.29-11-1.34-13.2-2.73A1.87,1.87,0,0,0,272.43,409Z" style="fill:#263238"></path><polygon points="261.37 393.28 269.13 391.97 270.35 401.29 262.59 402.6 261.37 393.28" style="opacity:0.2;isolation:isolate"></polygon><path d="M273.14,409.94a.18.18,0,0,1-.16-.14.16.16,0,0,1,.06-.19c.24-.22,2.49-2.18,3.42-1.88a.56.56,0,0,1,.4.45,1.1,1.1,0,0,1-.22,1.06,2.35,2.35,0,0,1-1.42.64A9.65,9.65,0,0,1,273.14,409.94Zm.49-.35a3.84,3.84,0,0,0,2.74-.6.74.74,0,0,0,.13-.7c0-.15-.1-.21-.15-.2a.42.42,0,0,0-.25,0A7.58,7.58,0,0,0,273.63,409.59Z" style="fill:#263238"></path><path d="M273.1,410a.19.19,0,0,1-.12-.15c0-.11-.19-2.37.58-3.25a1,1,0,0,1,.74-.37.6.6,0,0,1,.67.39c.3.79-1,2.75-1.69,3.32l-.09,0A.15.15,0,0,1,273.1,410Zm.73-3.22a4.53,4.53,0,0,0-.51,2.58c.7-.74,1.47-2.2,1.29-2.68,0-.05-.06-.18-.3-.14h-.09A.68.68,0,0,0,273.83,406.76Z" style="fill:#263238"></path><path d="M248.61,271.28s-27.76,36.55-41.42,44.35-64.68-3-64.68-3l1.82-13.89S191,300.22,198,297.13s28.1-41.37,28.1-41.37Z" style="fill:#263238"></path><path d="M248.61,271.28s-27.76,36.55-41.42,44.35-64.68-3-64.68-3l1.82-13.89S191,300.22,198,297.13s28.1-41.37,28.1-41.37Z" style="opacity:0.2;isolation:isolate"></path><path d="M266.14,184.89h-11a17.87,17.87,0,0,1-4.13-6.76c5.28-1.75,8.76-11.76,10.21-17.44l2.71,6,3.2,7.12a13.34,13.34,0,0,0-2.86,5.05A6,6,0,0,0,266.14,184.89Z" style="fill:#ebb376"></path><path d="M267.08,173.85a13.34,13.34,0,0,0-2.86,5.05c-4-1.63-5-7.42-4.28-9.5.25-.82,2.71-1.87,3.94-2.67Z" style="opacity:0.2;isolation:isolate"></path><path d="M274.19,394.86,257.9,396c-2.2-51.43-23.07-91.48-32.19-106.86s-15.48-33.6-3.83-56L260,244.27a104.82,104.82,0,0,1-3,10.23c-4,11.39-8.36,16.53-8.36,16.53C275.37,330,274.19,394.86,274.19,394.86Z" style="fill:#263238"></path><path d="M257,254.5c-4,11.39-8.36,16.53-8.36,16.53a93.26,93.26,0,0,0-5.4-12c.25.18,4.22,3.1,5,4.52C248.26,263.56,252.32,261,257,254.5Z" style="opacity:0.2;isolation:isolate"></path><polygon points="138.11 313.39 142.8 296.35 147.54 297.46 142.98 315.23 138.11 313.39" style="fill:#263238"></polygon><polygon points="138.11 313.39 142.8 296.35 147.54 297.46 142.98 315.23 138.11 313.39" style="fill:#fff;opacity:0.30000000000000004;isolation:isolate"></polygon><polygon points="275.36 398.92 258.64 401.73 255.53 395.66 275.1 393.48 275.36 398.92" style="fill:#263238"></polygon><polygon points="275.36 398.92 258.64 401.73 255.53 395.66 275.1 393.48 275.36 398.92" style="fill:#fff;opacity:0.30000000000000004;isolation:isolate"></polygon><path d="M260.9,155.23c-1.47,7.66-2.69,12.08.16,16.9,4.25,7.28,14.45,6.18,18.19-.89,3.34-6.38,5.14-17.85-1.49-22.72a10.65,10.65,0,0,0-16.86,6.71Z" style="fill:#ebb376"></path><path d="M271.82,160.25c-.2.6,0,1.19.45,1.29s.85-.32,1-.93,0-1.19-.45-1.29S272,159.63,271.82,160.25Z" style="fill:#263238"></path><path d="M278.77,162a1,1,0,0,0,.45,1.29c.4.1.85-.32,1-.93s-.05-1.19-.45-1.29S278.92,161.42,278.77,162Z" style="fill:#263238"></path><path d="M276.48,161.75a22.77,22.77,0,0,0,1.61,6,3.67,3.67,0,0,1-3.09-.19Z" style="fill:#d58745"></path><path d="M274.19,158a.38.38,0,0,0-.28-.27,3,3,0,0,1-2.15-1.62.35.35,0,0,0-.47-.21.37.37,0,0,0-.22.47h0a3.69,3.69,0,0,0,2.67,2.08.38.38,0,0,0,.45-.28h0A.37.37,0,0,0,274.19,158Z" style="fill:#263238"></path><path d="M267.67,166h0a5.73,5.73,0,0,1,4.37,3,.21.21,0,0,1-.1.27.19.19,0,0,1-.25-.09h0a5.44,5.44,0,0,0-4.07-2.72.19.19,0,0,1-.17-.21v0a.19.19,0,0,1,.21-.17Z" style="fill:#263238"></path><path d="M279,159.49a.33.33,0,0,0-.15.16.36.36,0,0,0,.25.45h0a3.69,3.69,0,0,0,3.33-.68.36.36,0,0,0,0-.52h0a.38.38,0,0,0-.52,0h0a3,3,0,0,1-2.65.5A.38.38,0,0,0,279,159.49Z" style="fill:#263238"></path><path d="M261.07,161.92s7.06-2.07,7.88-11.16a16.78,16.78,0,0,1,12.77,3.92,8.37,8.37,0,0,0,2.09-4.3c.34-3-2.83-3.27-2.83-3.27-.82-3.77-16.52-6.58-21-3.74-4.18,2.63-12.13,18.57-2.23,27C257.75,170.38,259.34,168.47,261.07,161.92Z" style="fill:#263238"></path><path d="M255.38,162.69a7.4,7.4,0,0,0,3.68,4.31c2.32,1.16,4-.8,3.76-3.25-.22-2.18-1.68-5.48-4.22-5.6S254.67,160.39,255.38,162.69Z" style="fill:#ebb376"></path><path d="M278.58,156.36a1.83,1.83,0,0,1-1.06-.34,2.14,2.14,0,0,1-1-2,.25.25,0,0,1,.3-.2.25.25,0,0,1,.19.29,1.67,1.67,0,0,0,.78,1.49,1.4,1.4,0,0,0,1.64,0,1.47,1.47,0,0,0,.72-1.05,3.45,3.45,0,0,0-.87-2.2.24.24,0,0,1,0-.35.25.25,0,0,1,.35,0,3.87,3.87,0,0,1,1,2.59,2,2,0,0,1-.93,1.41A2.1,2.1,0,0,1,278.58,156.36Z" style="fill:#263238"></path><polygon points="221.88 233.08 223.19 228.96 261.83 240.61 260 244.27 221.88 233.08" style="fill:#263238"></polygon><polygon points="221.88 233.08 223.19 228.96 261.83 240.61 260 244.27 221.88 233.08" style="fill:#fff;opacity:0.2"></polygon><path d="M250.71,237.36l-1.19,3.7a.55.55,0,0,0,.39.69l6,1.55a.54.54,0,0,0,.64-.33l1.41-3.62a.55.55,0,0,0-.37-.72L251.36,237A.55.55,0,0,0,250.71,237.36Z" style="fill:#fff"></path><polygon points="242.84 234.88 241.46 239.88 239.53 239.62 241.09 234.35 242.84 234.88" style="fill:#263238"></polygon><polygon points="227.39 230.22 225.57 235.06 224.19 234.88 226.14 229.85 227.39 230.22" style="fill:#263238"></polygon><polygon points="260.39 240.17 258.69 244.95 259.68 245.57 261.83 240.61 260.39 240.17" style="fill:#263238"></polygon><path d="M256.58,187.06l3.44,5.2s-6.26,12.56-18.78,9.12-17.86-.7-17.86-.7l-2.77,4.39,4.6,2.59s4.44-4.6,15.72-2.33,21-7,21.2-12.79l3.43-4.31-4.32-4.38Z" style="fill:#0684BE"></path><path d="M253.62,175.37s1.21,3.65,7.62,8.48a8.56,8.56,0,0,0,3.75-5.1l4.59,5.82a51.17,51.17,0,0,1-2.07,8.67l-6.45-8-6.88,5.08s-7.15-6.14-7-12.69Z" style="fill:#0684BE"></path><path d="M253.62,175.37s1.21,3.65,7.62,8.48a8.56,8.56,0,0,0,3.75-5.1l4.59,5.82a51.17,51.17,0,0,1-2.07,8.67l-6.45-8-6.88,5.08s-7.15-6.14-7-12.69Z" style="fill:#fff;opacity:0.6000000000000001;isolation:isolate"></path><path d="M310.92,217.55s3.15-2.67,5.56-.89l.9,3.94s1.38,4.44,1.12,5.29-3.95,4.48-4.88,4.21-5.62-3.67-5.32-4.81,2.81-4.69,2.81-4.69Z" style="fill:#ebb376"></path><path d="M231.66,193.48c-10.26-2.88-28.58-11.09-34.45-15s-5.4-15.6-5.4-15.6l7-.48s3.57,7.3,6.51,9.22,28.42,6.34,28.42,6.34C235.82,183.85,231.66,193.48,231.66,193.48Z" style="fill:#0684BE"></path><path d="M231.66,193.48c-10.26-2.88-28.58-11.09-34.45-15s-5.4-15.6-5.4-15.6l7-.48s3.57,7.3,6.51,9.22,28.42,6.34,28.42,6.34C235.82,183.85,231.66,193.48,231.66,193.48Z" style="fill:#fff;opacity:0.6000000000000001;isolation:isolate"></path><path d="M198.46,163.62s-3.14,2.68-5.55.89l-.91-3.94s-1.38-4.44-1.12-5.29,4-4.47,4.88-4.21,5.62,3.68,5.33,4.81-2.82,4.69-2.82,4.69Z" style="fill:#ebb376"></path></g></g><g id="freepik--wall-1--inject-6"><polygon points="213.29 399.67 213.29 388.55 228.96 388.55 228.96 362.78 221.88 362.78 221.88 350.74 199.77 350.74 199.77 340.64 168.21 340.64 168.21 320.48 177.84 320.48 177.84 302.35 146.16 302.35 146.16 288.29 169.18 288.29 169.18 269.75 151.66 269.75 151.66 258.77 139.59 258.77 139.59 237.11 164.8 237.11 164.8 223.43 152.63 223.43 152.63 197.91 137 197.91 137 176.72 143.87 176.72 143.87 164.69 115.95 164.69 115.95 144.73 58.99 144.73 58.99 416.24 234.3 416.24 234.3 399.67 213.29 399.67" style="fill:#0684BE"></polygon><polygon points="213.29 399.67 213.29 388.55 228.96 388.55 228.96 362.78 221.88 362.78 221.88 350.74 199.77 350.74 199.77 340.64 168.21 340.64 168.21 320.48 177.84 320.48 177.84 302.35 146.16 302.35 146.16 288.29 169.18 288.29 169.18 269.75 151.66 269.75 151.66 258.77 139.59 258.77 139.59 237.11 164.8 237.11 164.8 223.43 152.63 223.43 152.63 197.91 137 197.91 137 176.72 143.87 176.72 143.87 164.69 115.95 164.69 115.95 144.73 58.99 144.73 58.99 416.24 234.3 416.24 234.3 399.67 213.29 399.67" style="fill:#fff;opacity:0.2;isolation:isolate"></polygon><path d="M59,416.24H234.3l-1.65-6.76-7.08-5.83-16.28,2.14,7.69-3.52v-7l-11-5.6,6.92-7.37L206,370.21l-15.86,2.9-13.34-6.73L181.53,354l-19.36-8.48-4.38,2.68L142.38,351l12-6.73,5.35-7-9.88-7.89-13.24-1.94-9.25-5L116,324.14l10.25-6.42L136.48,323l13.37,1.68,9.88-4.24v-7.65l-9.88-3.72V297.76L136.61,290l-.56-12.15s-12.33,1.22-10.75,2.11-3.62,3.52-3.62,3.52l-13.18,7.21,8.22-7.69-8.22-8.37,7.5,4.28,28.55-9.42-1.27-6.63-10.51-1.09-1.09-7,4.66-5.78-3.57-6.46-7.47,1-16.8-9.43,16.83,4.77,28.08-9.93v-2l-5.85-3.53v-7.9l-6.87-3.47,3.86-9.82-3.86-11.89-13.33-4.64-2.68-11.3-13.62-5.29,2.44-13.53L101.33,142H59Z" style="fill:#0684BE"></path><path d="M59,416.24H234.3l-1.65-6.76-7.08-5.83-16.28,2.14,7.69-3.52v-7l-11-5.6,6.92-7.37L206,370.21l-15.86,2.9-13.34-6.73L181.53,354l-19.36-8.48-4.38,2.68L142.38,351l12-6.73,5.35-7-9.88-7.89-13.24-1.94-9.25-5L116,324.14l10.25-6.42L136.48,323l13.37,1.68,9.88-4.24v-7.65l-9.88-3.72V297.76L136.61,290l-.56-12.15s-12.33,1.22-10.75,2.11-3.62,3.52-3.62,3.52l-13.18,7.21,8.22-7.69-8.22-8.37,7.5,4.28,28.55-9.42-1.27-6.63-10.51-1.09-1.09-7,4.66-5.78-3.57-6.46-7.47,1-16.8-9.43,16.83,4.77,28.08-9.93v-2l-5.85-3.53v-7.9l-6.87-3.47,3.86-9.82-3.86-11.89-13.33-4.64-2.68-11.3-13.62-5.29,2.44-13.53L101.33,142H59Z" style="fill:#fff;opacity:0.6000000000000001;isolation:isolate"></path><path d="M73,416.24S84.06,398,82.72,395,71.18,405.6,71.18,405.6,77,379.48,73,376.81s-8,24.12-8,24.12-1.35-39.66-8.89-39.66,1.79,42.26,1.79,42.26-10.66-23.08-16-17.35,11,19.14,11,19.14-14.88-4.8-12,1.33,15.31,9.59,15.31,9.59Z" style="fill:#0684BE"></path></g><g id="freepik--Bricks--inject-6"><polygon points="322.53 187.54 326.91 176.4 338.59 176.23 352.09 189.39 349.42 198.75 338.95 198.75 322.53 187.54" style="fill:#0684BE"></polygon><polygon points="338.59 176.23 335.55 186.82 349.42 198.75 352.09 189.39 338.59 176.23" style="fill:#fff;opacity:0.2;isolation:isolate"></polygon><polygon points="322.53 187.54 335.55 186.82 349.42 198.75 338.95 198.75 322.53 187.54" style="opacity:0.2;isolation:isolate"></polygon><polygon points="390.89 304.28 391.37 294.48 400.39 291.29 414.32 297.96 414.7 305.92 406.58 308.67 390.89 304.28" style="fill:#0684BE"></polygon><polygon points="400.39 291.29 400.81 300.31 414.7 305.92 414.32 297.96 400.39 291.29" style="fill:#fff;opacity:0.2;isolation:isolate"></polygon><polygon points="390.89 304.28 400.81 300.31 414.7 305.92 406.58 308.67 390.89 304.28" style="opacity:0.2;isolation:isolate"></polygon><polygon points="280.55 287.71 298.56 272.86 307.2 272.86 310.85 280.48 293.73 298.12 284.2 298.67 280.55 287.71" style="fill:#0684BE"></polygon><polygon points="307.2 272.86 290.41 288.29 293.73 298.12 310.85 280.48 307.2 272.86" style="fill:#fff;opacity:0.2;isolation:isolate"></polygon><polygon points="280.55 287.71 290.41 288.29 307.2 272.86 298.56 272.86 280.55 287.71" style="fill:#fff;opacity:0.4;isolation:isolate"></polygon><polygon points="212.2 94.65 227.53 82.02 234.88 82.02 237.99 88.5 223.42 103.51 215.31 103.98 212.2 94.65" style="fill:#0684BE"></polygon><polygon points="234.88 82.02 220.59 95.15 223.42 103.51 237.99 88.5 234.88 82.02" style="fill:#fff;opacity:0.2;isolation:isolate"></polygon><polygon points="212.2 94.65 220.59 95.15 234.88 82.02 227.53 82.02 212.2 94.65" style="fill:#fff;opacity:0.4;isolation:isolate"></polygon><polygon points="163.38 252.59 170.68 242.52 190.11 244.51 195.5 252.15 190.11 260.09 170.68 258.77 163.38 252.59" style="fill:#0684BE"></polygon><polygon points="190.11 244.51 183.46 251.3 190.11 260.09 195.5 252.15 190.11 244.51" style="fill:#fff;opacity:0.2;isolation:isolate"></polygon><polygon points="163.38 252.59 183.46 251.3 190.11 260.09 170.68 258.77 163.38 252.59" style="opacity:0.2;isolation:isolate"></polygon><polygon points="369.44 118.15 370.04 109.5 382.25 103.51 388.26 106.03 388 112.72 376.03 119.11 369.44 118.15" style="fill:#0684BE"></polygon><polygon points="382.25 103.51 380.83 109.98 388 112.72 388.26 106.03 382.25 103.51" style="fill:#fff;opacity:0.2;isolation:isolate"></polygon><polygon points="369.44 118.15 380.83 109.98 388 112.72 376.03 119.11 369.44 118.15" style="opacity:0.2;isolation:isolate"></polygon><polygon points="304.83 413.36 305.41 400.92 322.76 391.94 331.45 395.37 331.29 404.97 314.32 414.52 304.83 413.36" style="fill:#0684BE"></polygon><polygon points="322.76 391.94 320.91 401.27 331.29 404.97 331.45 395.37 322.76 391.94" style="fill:#fff;opacity:0.2;isolation:isolate"></polygon><polygon points="304.83 413.36 320.91 401.27 331.29 404.97 314.32 414.52 304.83 413.36" style="opacity:0.2;isolation:isolate"></polygon><polygon points="214.36 329.93 220.75 320.48 244.69 327.4 249.48 337.23 242.98 344.96 220.09 338.12 214.36 329.93" style="fill:#0684BE"></polygon><polygon points="214.36 329.93 237.99 337.23 242.98 344.96 220.09 338.12 214.36 329.93" style="opacity:0.2;isolation:isolate"></polygon><polygon points="244.69 327.4 237.99 337.23 242.98 344.96 249.48 337.23 244.69 327.4" style="fill:#fff;opacity:0.2;isolation:isolate"></polygon></g></svg>
